<svg width="345" height="53" viewBox="0 0 345 53" fill="none" xmlns="http://www.w3.org/2000/svg">
<path d="M123.22 12.0289V48.499H116.296V12.0289H123.22ZM134.643 12.0289V17.4644H105V12.0289H134.643Z" fill="#FBFDFC"/>
<path d="M143.665 26.9326V48.499H136.993V21.3969H143.311L143.665 26.9326ZM151.979 21.2216L151.878 27.3834C151.507 27.3166 151.086 27.2665 150.614 27.2331C150.16 27.1997 149.73 27.183 149.326 27.183C148.298 27.183 147.397 27.325 146.622 27.6089C145.847 27.876 145.198 28.2685 144.676 28.7861C144.17 29.3038 143.783 29.9383 143.513 30.6898C143.244 31.4245 143.092 32.2595 143.058 33.1946L141.618 33.0193C141.618 31.2993 141.795 29.7046 142.149 28.2351C142.502 26.7656 143.016 25.4798 143.69 24.3776C144.364 23.2755 145.206 22.4239 146.217 21.8227C147.245 21.2049 148.424 20.896 149.755 20.896C150.126 20.896 150.522 20.9294 150.943 20.9961C151.381 21.0462 151.726 21.1214 151.979 21.2216Z" fill="#FBFDFC"/>
<path d="M169.846 42.738V30.2389C169.846 29.3205 169.686 28.5273 169.366 27.8593C169.045 27.1914 168.557 26.6737 167.9 26.3064C167.243 25.939 166.409 25.7553 165.398 25.7553C164.505 25.7553 163.722 25.9056 163.048 26.2062C162.391 26.5067 161.885 26.9326 161.532 27.4836C161.178 28.018 161.001 28.6358 161.001 29.3372H154.304C154.304 28.2184 154.574 27.158 155.113 26.1561C155.652 25.1374 156.418 24.2357 157.412 23.4509C158.423 22.6493 159.628 22.0231 161.026 21.5723C162.441 21.1214 164.025 20.896 165.777 20.896C167.849 20.896 169.694 21.2466 171.311 21.948C172.946 22.6326 174.226 23.668 175.153 25.0539C176.096 26.4399 176.568 28.185 176.568 30.289V42.1118C176.568 43.4644 176.652 44.6249 176.821 45.5934C177.006 46.5453 177.275 47.3719 177.629 48.0732V48.499H170.831C170.511 47.8144 170.267 46.946 170.098 45.894C169.93 44.8253 169.846 43.7733 169.846 42.738ZM170.781 31.9923L170.831 35.9249H166.611C165.566 35.9249 164.648 36.0334 163.856 36.2505C163.065 36.4509 162.416 36.7514 161.911 37.1522C161.405 37.5363 161.026 38.0039 160.773 38.5549C160.521 39.0893 160.394 39.6988 160.394 40.3834C160.394 41.0514 160.546 41.6525 160.849 42.1869C161.169 42.7213 161.624 43.1471 162.214 43.4644C162.82 43.7649 163.528 43.9152 164.337 43.9152C165.516 43.9152 166.544 43.6814 167.42 43.2139C168.296 42.7296 168.978 42.1451 169.467 41.4605C169.955 40.7759 170.216 40.1246 170.25 39.5067L172.171 42.3622C171.935 43.0469 171.581 43.7733 171.109 44.5414C170.638 45.3096 170.031 46.0276 169.29 46.6956C168.548 47.3635 167.656 47.9146 166.611 48.3487C165.566 48.7829 164.353 49 162.972 49C161.203 49 159.619 48.6493 158.221 47.948C156.823 47.2466 155.719 46.2864 154.91 45.0674C154.102 43.8484 153.697 42.4624 153.697 40.9094C153.697 39.4733 153.967 38.2042 154.506 37.1021C155.045 36 155.846 35.0732 156.907 34.3218C157.968 33.5536 159.282 32.9775 160.849 32.5934C162.433 32.1927 164.244 31.9923 166.283 31.9923H170.781Z" fill="#FBFDFC"/>
<path d="M193.803 43.79C194.746 43.79 195.589 43.6063 196.33 43.2389C197.071 42.8715 197.661 42.3539 198.099 41.6859C198.554 41.018 198.798 40.2415 198.832 39.3565H205.124C205.091 41.1933 204.568 42.8382 203.557 44.2909C202.547 45.7437 201.199 46.896 199.514 47.7476C197.846 48.5825 195.976 49 193.904 49C191.798 49 189.962 48.6493 188.395 47.948C186.828 47.2466 185.522 46.2697 184.478 45.0173C183.45 43.7649 182.675 42.3121 182.153 40.659C181.647 39.0058 181.395 37.2357 181.395 35.3487V34.5472C181.395 32.6602 181.647 30.8902 182.153 29.237C182.675 27.5838 183.45 26.131 184.478 24.8786C185.522 23.6262 186.828 22.6493 188.395 21.948C189.962 21.2466 191.79 20.896 193.879 20.896C196.086 20.896 198.023 21.3218 199.691 22.1734C201.376 23.025 202.69 24.2274 203.633 25.7803C204.594 27.3333 205.091 29.1618 205.124 31.2659H198.832C198.798 30.2974 198.579 29.429 198.175 28.6609C197.77 27.8927 197.198 27.2749 196.456 26.8073C195.715 26.3398 194.814 26.106 193.752 26.106C192.623 26.106 191.68 26.3398 190.922 26.8073C190.181 27.2749 189.599 27.9178 189.178 28.736C188.774 29.5376 188.487 30.4393 188.319 31.4412C188.167 32.4265 188.091 33.4618 188.091 34.5472V35.3487C188.091 36.4509 188.167 37.5029 188.319 38.5048C188.487 39.5067 188.774 40.4085 189.178 41.21C189.599 41.9949 190.181 42.6211 190.922 43.0886C191.68 43.5562 192.64 43.79 193.803 43.79Z" fill="#FBFDFC"/>
<path d="M216.244 10V48.499H209.572V10H216.244ZM233.377 21.3969L221.475 34.6474L215.031 41.1349L212.908 36L217.886 29.7881L225.316 21.3969H233.377ZM226.554 48.499L218.088 35.8748L222.536 31.5915L234.287 48.499H226.554Z" fill="#FBFDFC"/>
<path d="M260.771 43.0886V48.499H242.273V43.0886H260.771ZM244.37 12.0289V48.499H237.421V12.0289H244.37Z" fill="#FBFDFC"/>
<path d="M279.977 42.738V30.2389C279.977 29.3205 279.817 28.5273 279.497 27.8593C279.177 27.1914 278.689 26.6737 278.031 26.3064C277.374 25.939 276.54 25.7553 275.53 25.7553C274.637 25.7553 273.853 25.9056 273.179 26.2062C272.522 26.5067 272.017 26.9326 271.663 27.4836C271.309 28.018 271.132 28.6358 271.132 29.3372H264.436C264.436 28.2184 264.705 27.158 265.244 26.1561C265.783 25.1374 266.55 24.2357 267.544 23.4509C268.555 22.6493 269.759 22.0231 271.158 21.5723C272.573 21.1214 274.157 20.896 275.909 20.896C277.981 20.896 279.826 21.2466 281.443 21.948C283.077 22.6326 284.358 23.668 285.284 25.0539C286.228 26.4399 286.699 28.185 286.699 30.289V42.1118C286.699 43.4644 286.784 44.6249 286.952 45.5934C287.138 46.5453 287.407 47.3719 287.761 48.0732V48.499H280.963C280.643 47.8144 280.399 46.946 280.23 45.894C280.062 44.8253 279.977 43.7733 279.977 42.738ZM280.912 31.9923L280.963 35.9249H276.743C275.698 35.9249 274.78 36.0334 273.988 36.2505C273.196 36.4509 272.548 36.7514 272.042 37.1522C271.537 37.5363 271.158 38.0039 270.905 38.5549C270.652 39.0893 270.526 39.6988 270.526 40.3834C270.526 41.0514 270.678 41.6525 270.981 42.1869C271.301 42.7213 271.756 43.1471 272.345 43.4644C272.952 43.7649 273.66 43.9152 274.468 43.9152C275.648 43.9152 276.675 43.6814 277.551 43.2139C278.427 42.7296 279.11 42.1451 279.598 41.4605C280.087 40.7759 280.348 40.1246 280.382 39.5067L282.302 42.3622C282.066 43.0469 281.713 43.7733 281.241 44.5414C280.769 45.3096 280.163 46.0276 279.421 46.6956C278.68 47.3635 277.787 47.9146 276.743 48.3487C275.698 48.7829 274.485 49 273.104 49C271.335 49 269.751 48.6493 268.353 47.948C266.954 47.2466 265.851 46.2864 265.042 45.0674C264.233 43.8484 263.829 42.4624 263.829 40.9094C263.829 39.4733 264.099 38.2042 264.638 37.1021C265.177 36 265.977 35.0732 267.039 34.3218C268.1 33.5536 269.414 32.9775 270.981 32.5934C272.564 32.1927 274.376 31.9923 276.414 31.9923H280.912Z" fill="#FBFDFC"/>
<path d="M299.259 27.183V48.499H292.588V21.3969H298.855L299.259 27.183ZM298.198 33.9711H296.227C296.244 32.0006 296.513 30.2139 297.035 28.6108C297.558 27.0077 298.291 25.6301 299.234 24.4778C300.194 23.3256 301.331 22.4406 302.646 21.8227C303.96 21.2049 305.425 20.896 307.043 20.896C308.357 20.896 309.545 21.0796 310.606 21.447C311.667 21.8144 312.577 22.3988 313.335 23.2004C314.11 24.0019 314.7 25.0539 315.104 26.3565C315.525 27.6423 315.736 29.2286 315.736 31.1156V48.499H309.014V31.0655C309.014 29.8298 308.829 28.8529 308.458 28.1349C308.104 27.4168 307.582 26.9075 306.891 26.6069C306.217 26.3064 305.383 26.1561 304.389 26.1561C303.362 26.1561 302.46 26.3648 301.685 26.7823C300.927 27.183 300.287 27.7425 299.765 28.4605C299.259 29.1785 298.872 30.0051 298.602 30.9403C298.333 31.8754 298.198 32.8857 298.198 33.9711Z" fill="#FBFDFC"/>
<path d="M333.906 49C331.834 49 329.972 48.666 328.321 47.9981C326.67 47.3301 325.263 46.4033 324.101 45.2177C322.955 44.0154 322.071 42.6211 321.447 41.0347C320.841 39.4316 320.538 37.7116 320.538 35.8748V34.8728C320.538 32.7855 320.841 30.8902 321.447 29.1869C322.054 27.4669 322.913 25.9891 324.025 24.7534C325.137 23.5177 326.468 22.5658 328.018 21.8979C329.568 21.2299 331.278 20.896 333.148 20.896C335.085 20.896 336.795 21.2216 338.278 21.8728C339.76 22.5074 340.999 23.4091 341.993 24.578C342.987 25.7469 343.736 27.1496 344.242 28.7861C344.747 30.4059 345 32.201 345 34.1715V36.9518H323.57V32.3931H338.43V31.8921C338.396 30.8401 338.194 29.8799 337.823 29.0116C337.452 28.1265 336.88 27.4252 336.105 26.9075C335.33 26.3732 334.327 26.106 333.097 26.106C332.103 26.106 331.236 26.3231 330.494 26.7572C329.77 27.1747 329.163 27.7759 328.675 28.5607C328.203 29.3288 327.849 30.2473 327.613 31.316C327.378 32.3847 327.26 33.5703 327.26 34.8728V35.8748C327.26 37.0103 327.411 38.0623 327.715 39.0308C328.035 39.9994 328.498 40.8426 329.104 41.5607C329.728 42.262 330.469 42.8131 331.328 43.2139C332.204 43.5979 333.198 43.79 334.31 43.79C335.709 43.79 336.972 43.5228 338.101 42.9884C339.247 42.4374 340.241 41.6275 341.083 40.5588L344.444 44.0154C343.871 44.8504 343.096 45.6519 342.119 46.42C341.159 47.1882 339.996 47.8144 338.632 48.2986C337.267 48.7662 335.692 49 333.906 49Z" fill="#FBFDFC"/>
<path d="M70.9129 0L98 0L60.8217 53H33.7346L70.9129 0Z" fill="#3859DE"/>
<path d="M37.1783 0H63.7343L26.5559 53H0L37.1783 0Z" fill="#3859DE"/>
</svg>
